<mxfile host="app.diagrams.net" modified="2023-12-22T05:27:01.227Z" agent="Mozilla/5.0 (Windows NT 10.0; Win64; x64) AppleWebKit/537.36 (KHTML, like Gecko) Chrome/120.0.0.0 Safari/537.36" etag="wlYblBMgeFmlDo-2i1Ih" version="22.1.11" type="device">
  <diagram name="Page-1" id="AgBCFzTiTCdpKTea896U">
    <mxGraphModel dx="3520" dy="1736" grid="1" gridSize="10" guides="1" tooltips="1" connect="1" arrows="1" fold="1" page="1" pageScale="1" pageWidth="1169" pageHeight="827" math="0" shadow="0">
      <root>
        <mxCell id="0" />
        <mxCell id="1" parent="0" />
        <mxCell id="7Q0SSp4v-BBXig3MVqCc-333" value="" style="group" parent="1" vertex="1" connectable="0">
          <mxGeometry x="110" y="30" width="2970" height="1435" as="geometry" />
        </mxCell>
        <mxCell id="7Q0SSp4v-BBXig3MVqCc-1" value="" style="rounded=0;whiteSpace=wrap;html=1;strokeWidth=2;fillWeight=4;hachureGap=8;hachureAngle=45;fillColor=#1ba1e2;" parent="7Q0SSp4v-BBXig3MVqCc-333" vertex="1">
          <mxGeometry x="30" y="35" width="10" height="210" as="geometry" />
        </mxCell>
        <mxCell id="7Q0SSp4v-BBXig3MVqCc-2" value="" style="rounded=0;whiteSpace=wrap;html=1;strokeWidth=2;fillWeight=4;hachureGap=8;hachureAngle=45;fillColor=#1ba1e2;" parent="7Q0SSp4v-BBXig3MVqCc-333" vertex="1">
          <mxGeometry x="125" y="35" width="20" height="210" as="geometry" />
        </mxCell>
        <mxCell id="7Q0SSp4v-BBXig3MVqCc-3" value="" style="rounded=0;whiteSpace=wrap;html=1;strokeWidth=2;fillWeight=4;hachureGap=8;hachureAngle=45;fillColor=#1ba1e2;" parent="7Q0SSp4v-BBXig3MVqCc-333" vertex="1">
          <mxGeometry x="240" y="35" width="30" height="210" as="geometry" />
        </mxCell>
        <mxCell id="7Q0SSp4v-BBXig3MVqCc-5" value="&lt;font style=&quot;font-size: 40px;&quot;&gt;572 x 572&lt;/font&gt;" style="text;html=1;strokeColor=none;fillColor=none;align=center;verticalAlign=middle;whiteSpace=wrap;rounded=0;rotation=-90;fontSize=18;" parent="7Q0SSp4v-BBXig3MVqCc-333" vertex="1">
          <mxGeometry x="-95.15" y="123.98" width="210.31" height="30" as="geometry" />
        </mxCell>
        <mxCell id="7Q0SSp4v-BBXig3MVqCc-8" value="&lt;font style=&quot;font-size: 40px;&quot;&gt;1&lt;/font&gt;" style="text;html=1;strokeColor=none;fillColor=none;align=center;verticalAlign=middle;whiteSpace=wrap;rounded=0;fontStyle=1;fontSize=18;" parent="7Q0SSp4v-BBXig3MVqCc-333" vertex="1">
          <mxGeometry x="5" width="60" height="30" as="geometry" />
        </mxCell>
        <mxCell id="7Q0SSp4v-BBXig3MVqCc-9" value="&lt;font style=&quot;font-size: 40px;&quot;&gt;568 x 568&lt;/font&gt;" style="text;html=1;strokeColor=none;fillColor=none;align=center;verticalAlign=middle;whiteSpace=wrap;rounded=0;rotation=-90;fontSize=18;" parent="7Q0SSp4v-BBXig3MVqCc-333" vertex="1">
          <mxGeometry x="128" y="125" width="185" height="30" as="geometry" />
        </mxCell>
        <mxCell id="7Q0SSp4v-BBXig3MVqCc-13" value="&lt;font style=&quot;font-size: 40px;&quot;&gt;570 x 570&lt;/font&gt;" style="text;html=1;strokeColor=none;fillColor=none;align=center;verticalAlign=middle;whiteSpace=wrap;rounded=0;rotation=-90;fontSize=18;" parent="7Q0SSp4v-BBXig3MVqCc-333" vertex="1">
          <mxGeometry x="1" y="125" width="210" height="30" as="geometry" />
        </mxCell>
        <mxCell id="7Q0SSp4v-BBXig3MVqCc-14" value="&lt;font style=&quot;font-size: 40px;&quot;&gt;64&lt;/font&gt;" style="text;html=1;strokeColor=none;fillColor=none;align=center;verticalAlign=middle;whiteSpace=wrap;rounded=0;fontStyle=1;fontSize=18;" parent="7Q0SSp4v-BBXig3MVqCc-333" vertex="1">
          <mxGeometry x="225" width="60" height="30" as="geometry" />
        </mxCell>
        <mxCell id="7Q0SSp4v-BBXig3MVqCc-15" value="&lt;font style=&quot;font-size: 40px;&quot;&gt;64&lt;/font&gt;" style="text;html=1;strokeColor=none;fillColor=none;align=center;verticalAlign=middle;whiteSpace=wrap;rounded=0;fontStyle=1;fontSize=18;" parent="7Q0SSp4v-BBXig3MVqCc-333" vertex="1">
          <mxGeometry x="105" width="60" height="30" as="geometry" />
        </mxCell>
        <mxCell id="7Q0SSp4v-BBXig3MVqCc-16" value="" style="shape=singleArrow;whiteSpace=wrap;html=1;arrowWidth=0.5;arrowSize=0.4714285714285714;fillColor=#D970FF;fillStyle=solid;" parent="7Q0SSp4v-BBXig3MVqCc-333" vertex="1">
          <mxGeometry x="50" y="125" width="40" height="30" as="geometry" />
        </mxCell>
        <mxCell id="7Q0SSp4v-BBXig3MVqCc-17" value="" style="shape=singleArrow;whiteSpace=wrap;html=1;arrowWidth=0.5;arrowSize=0.4714285714285714;fillColor=#D970FF;fillStyle=solid;" parent="7Q0SSp4v-BBXig3MVqCc-333" vertex="1">
          <mxGeometry x="165" y="125" width="40" height="30" as="geometry" />
        </mxCell>
        <mxCell id="7Q0SSp4v-BBXig3MVqCc-19" value="" style="shape=singleArrow;whiteSpace=wrap;html=1;arrowWidth=0.5;arrowSize=0.4714285714285714;fillColor=#FF0000;fillStyle=solid;direction=south;" parent="7Q0SSp4v-BBXig3MVqCc-333" vertex="1">
          <mxGeometry x="240" y="265" width="30" height="60" as="geometry" />
        </mxCell>
        <mxCell id="7Q0SSp4v-BBXig3MVqCc-20" value="" style="rounded=0;whiteSpace=wrap;html=1;strokeWidth=2;fillWeight=4;hachureGap=8;hachureAngle=45;fillColor=#1ba1e2;" parent="7Q0SSp4v-BBXig3MVqCc-333" vertex="1">
          <mxGeometry x="255" y="375" width="10" height="210" as="geometry" />
        </mxCell>
        <mxCell id="7Q0SSp4v-BBXig3MVqCc-21" value="" style="rounded=0;whiteSpace=wrap;html=1;strokeWidth=2;fillWeight=4;hachureGap=8;hachureAngle=45;fillColor=#1ba1e2;" parent="7Q0SSp4v-BBXig3MVqCc-333" vertex="1">
          <mxGeometry x="350" y="375" width="20" height="210" as="geometry" />
        </mxCell>
        <mxCell id="7Q0SSp4v-BBXig3MVqCc-22" value="" style="rounded=0;whiteSpace=wrap;html=1;strokeWidth=2;fillWeight=4;hachureGap=8;hachureAngle=45;fillColor=#1ba1e2;" parent="7Q0SSp4v-BBXig3MVqCc-333" vertex="1">
          <mxGeometry x="465" y="375" width="30" height="210" as="geometry" />
        </mxCell>
        <mxCell id="7Q0SSp4v-BBXig3MVqCc-23" value="&lt;font style=&quot;font-size: 40px;&quot;&gt;284 x 284&lt;/font&gt;" style="text;html=1;strokeColor=none;fillColor=none;align=center;verticalAlign=middle;whiteSpace=wrap;rounded=0;rotation=-90;fontSize=18;" parent="7Q0SSp4v-BBXig3MVqCc-333" vertex="1">
          <mxGeometry x="130" y="463" width="210" height="30" as="geometry" />
        </mxCell>
        <mxCell id="7Q0SSp4v-BBXig3MVqCc-24" value="&lt;font style=&quot;font-size: 40px;&quot;&gt;64&lt;/font&gt;" style="text;html=1;strokeColor=none;fillColor=none;align=center;verticalAlign=middle;whiteSpace=wrap;rounded=0;fontStyle=1;fontSize=18;" parent="7Q0SSp4v-BBXig3MVqCc-333" vertex="1">
          <mxGeometry x="230" y="340" width="60" height="30" as="geometry" />
        </mxCell>
        <mxCell id="7Q0SSp4v-BBXig3MVqCc-25" value="&lt;font style=&quot;font-size: 40px;&quot;&gt;280 x 280&lt;/font&gt;" style="text;html=1;strokeColor=none;fillColor=none;align=center;verticalAlign=middle;whiteSpace=wrap;rounded=0;rotation=-90;fontSize=18;" parent="7Q0SSp4v-BBXig3MVqCc-333" vertex="1">
          <mxGeometry x="340" y="465" width="205" height="30" as="geometry" />
        </mxCell>
        <mxCell id="7Q0SSp4v-BBXig3MVqCc-26" value="&lt;font style=&quot;font-size: 40px;&quot;&gt;282 x 282&lt;/font&gt;" style="text;html=1;strokeColor=none;fillColor=none;align=center;verticalAlign=middle;whiteSpace=wrap;rounded=0;rotation=-90;fontSize=18;" parent="7Q0SSp4v-BBXig3MVqCc-333" vertex="1">
          <mxGeometry x="225.63" y="463.13" width="213.75" height="30" as="geometry" />
        </mxCell>
        <mxCell id="7Q0SSp4v-BBXig3MVqCc-27" value="&lt;font style=&quot;font-size: 40px;&quot;&gt;128&lt;/font&gt;" style="text;html=1;strokeColor=none;fillColor=none;align=center;verticalAlign=middle;whiteSpace=wrap;rounded=0;fontStyle=1;fontSize=18;" parent="7Q0SSp4v-BBXig3MVqCc-333" vertex="1">
          <mxGeometry x="450" y="340" width="60" height="30" as="geometry" />
        </mxCell>
        <mxCell id="7Q0SSp4v-BBXig3MVqCc-28" value="&lt;font style=&quot;font-size: 40px;&quot;&gt;128&lt;/font&gt;" style="text;html=1;strokeColor=none;fillColor=none;align=center;verticalAlign=middle;whiteSpace=wrap;rounded=0;fontStyle=1;fontSize=18;" parent="7Q0SSp4v-BBXig3MVqCc-333" vertex="1">
          <mxGeometry x="330" y="340" width="60" height="30" as="geometry" />
        </mxCell>
        <mxCell id="7Q0SSp4v-BBXig3MVqCc-29" value="" style="shape=singleArrow;whiteSpace=wrap;html=1;arrowWidth=0.5;arrowSize=0.4714285714285714;fillColor=#D970FF;fillStyle=solid;" parent="7Q0SSp4v-BBXig3MVqCc-333" vertex="1">
          <mxGeometry x="275" y="465" width="40" height="30" as="geometry" />
        </mxCell>
        <mxCell id="7Q0SSp4v-BBXig3MVqCc-30" value="" style="shape=singleArrow;whiteSpace=wrap;html=1;arrowWidth=0.5;arrowSize=0.4714285714285714;fillColor=#D970FF;fillStyle=solid;" parent="7Q0SSp4v-BBXig3MVqCc-333" vertex="1">
          <mxGeometry x="390" y="465" width="40" height="30" as="geometry" />
        </mxCell>
        <mxCell id="7Q0SSp4v-BBXig3MVqCc-31" value="" style="shape=singleArrow;whiteSpace=wrap;html=1;arrowWidth=0.5;arrowSize=0.4714285714285714;fillColor=#FF0000;fillStyle=solid;direction=south;" parent="7Q0SSp4v-BBXig3MVqCc-333" vertex="1">
          <mxGeometry x="465" y="605" width="30" height="60" as="geometry" />
        </mxCell>
        <mxCell id="7Q0SSp4v-BBXig3MVqCc-33" value="" style="rounded=0;whiteSpace=wrap;html=1;strokeWidth=2;fillWeight=4;hachureGap=8;hachureAngle=45;fillColor=#1ba1e2;" parent="7Q0SSp4v-BBXig3MVqCc-333" vertex="1">
          <mxGeometry x="473" y="707" width="10" height="210" as="geometry" />
        </mxCell>
        <mxCell id="7Q0SSp4v-BBXig3MVqCc-34" value="" style="rounded=0;whiteSpace=wrap;html=1;strokeWidth=2;fillWeight=4;hachureGap=8;hachureAngle=45;fillColor=#1ba1e2;" parent="7Q0SSp4v-BBXig3MVqCc-333" vertex="1">
          <mxGeometry x="568" y="707" width="20" height="210" as="geometry" />
        </mxCell>
        <mxCell id="7Q0SSp4v-BBXig3MVqCc-35" value="" style="rounded=0;whiteSpace=wrap;html=1;strokeWidth=2;fillWeight=4;hachureGap=8;hachureAngle=45;fillColor=#1ba1e2;" parent="7Q0SSp4v-BBXig3MVqCc-333" vertex="1">
          <mxGeometry x="683" y="707" width="30" height="210" as="geometry" />
        </mxCell>
        <mxCell id="7Q0SSp4v-BBXig3MVqCc-36" value="&lt;font style=&quot;font-size: 40px;&quot;&gt;140 x 140&lt;/font&gt;" style="text;html=1;strokeColor=none;fillColor=none;align=center;verticalAlign=middle;whiteSpace=wrap;rounded=0;rotation=-90;fontSize=18;" parent="7Q0SSp4v-BBXig3MVqCc-333" vertex="1">
          <mxGeometry x="346.75" y="797" width="210" height="30" as="geometry" />
        </mxCell>
        <mxCell id="7Q0SSp4v-BBXig3MVqCc-37" value="&lt;font style=&quot;font-size: 40px;&quot;&gt;128&lt;/font&gt;" style="text;html=1;strokeColor=none;fillColor=none;align=center;verticalAlign=middle;whiteSpace=wrap;rounded=0;fontStyle=1;fontSize=18;" parent="7Q0SSp4v-BBXig3MVqCc-333" vertex="1">
          <mxGeometry x="448" y="672" width="60" height="30" as="geometry" />
        </mxCell>
        <mxCell id="7Q0SSp4v-BBXig3MVqCc-38" value="&lt;font style=&quot;font-size: 40px;&quot;&gt;136 x 136&lt;/font&gt;" style="text;html=1;strokeColor=none;fillColor=none;align=center;verticalAlign=middle;whiteSpace=wrap;rounded=0;rotation=-90;fontSize=18;" parent="7Q0SSp4v-BBXig3MVqCc-333" vertex="1">
          <mxGeometry x="556.25" y="798.25" width="212.5" height="30" as="geometry" />
        </mxCell>
        <mxCell id="7Q0SSp4v-BBXig3MVqCc-39" value="&lt;font style=&quot;font-size: 40px;&quot;&gt;138 x 138&lt;/font&gt;" style="text;html=1;strokeColor=none;fillColor=none;align=center;verticalAlign=middle;whiteSpace=wrap;rounded=0;rotation=-90;fontSize=18;" parent="7Q0SSp4v-BBXig3MVqCc-333" vertex="1">
          <mxGeometry x="443.38" y="795.38" width="211.25" height="30" as="geometry" />
        </mxCell>
        <mxCell id="7Q0SSp4v-BBXig3MVqCc-40" value="&lt;font style=&quot;font-size: 40px;&quot;&gt;256&lt;/font&gt;" style="text;html=1;strokeColor=none;fillColor=none;align=center;verticalAlign=middle;whiteSpace=wrap;rounded=0;fontStyle=1;fontSize=18;" parent="7Q0SSp4v-BBXig3MVqCc-333" vertex="1">
          <mxGeometry x="668" y="672" width="60" height="30" as="geometry" />
        </mxCell>
        <mxCell id="7Q0SSp4v-BBXig3MVqCc-41" value="&lt;font style=&quot;font-size: 40px;&quot;&gt;256&lt;/font&gt;" style="text;html=1;strokeColor=none;fillColor=none;align=center;verticalAlign=middle;whiteSpace=wrap;rounded=0;fontStyle=1;fontSize=18;" parent="7Q0SSp4v-BBXig3MVqCc-333" vertex="1">
          <mxGeometry x="548" y="672" width="60" height="30" as="geometry" />
        </mxCell>
        <mxCell id="7Q0SSp4v-BBXig3MVqCc-42" value="" style="shape=singleArrow;whiteSpace=wrap;html=1;arrowWidth=0.5;arrowSize=0.4714285714285714;fillColor=#D970FF;fillStyle=solid;" parent="7Q0SSp4v-BBXig3MVqCc-333" vertex="1">
          <mxGeometry x="493" y="797" width="40" height="30" as="geometry" />
        </mxCell>
        <mxCell id="7Q0SSp4v-BBXig3MVqCc-43" value="" style="shape=singleArrow;whiteSpace=wrap;html=1;arrowWidth=0.5;arrowSize=0.4714285714285714;fillColor=#D970FF;fillStyle=solid;" parent="7Q0SSp4v-BBXig3MVqCc-333" vertex="1">
          <mxGeometry x="608" y="797" width="40" height="30" as="geometry" />
        </mxCell>
        <mxCell id="7Q0SSp4v-BBXig3MVqCc-44" value="" style="shape=singleArrow;whiteSpace=wrap;html=1;arrowWidth=0.5;arrowSize=0.4714285714285714;fillColor=#FF0000;fillStyle=solid;direction=south;" parent="7Q0SSp4v-BBXig3MVqCc-333" vertex="1">
          <mxGeometry x="685" y="925" width="30" height="60" as="geometry" />
        </mxCell>
        <mxCell id="7Q0SSp4v-BBXig3MVqCc-45" value="" style="rounded=0;whiteSpace=wrap;html=1;strokeWidth=2;fillWeight=4;hachureGap=8;hachureAngle=45;fillColor=#1ba1e2;" parent="7Q0SSp4v-BBXig3MVqCc-333" vertex="1">
          <mxGeometry x="687.5" y="1028" width="25" height="210" as="geometry" />
        </mxCell>
        <mxCell id="7Q0SSp4v-BBXig3MVqCc-46" value="" style="rounded=0;whiteSpace=wrap;html=1;strokeWidth=2;fillWeight=4;hachureGap=8;hachureAngle=45;fillColor=#1ba1e2;" parent="7Q0SSp4v-BBXig3MVqCc-333" vertex="1">
          <mxGeometry x="805" y="1028" width="40" height="210" as="geometry" />
        </mxCell>
        <mxCell id="7Q0SSp4v-BBXig3MVqCc-47" value="" style="rounded=0;whiteSpace=wrap;html=1;strokeWidth=2;fillWeight=4;hachureGap=8;hachureAngle=45;fillColor=#1ba1e2;" parent="7Q0SSp4v-BBXig3MVqCc-333" vertex="1">
          <mxGeometry x="935" y="1028" width="45" height="210" as="geometry" />
        </mxCell>
        <mxCell id="7Q0SSp4v-BBXig3MVqCc-48" value="&lt;font style=&quot;font-size: 40px;&quot;&gt;68 x 68&lt;/font&gt;" style="text;html=1;strokeColor=none;fillColor=none;align=center;verticalAlign=middle;whiteSpace=wrap;rounded=0;rotation=-90;fontSize=18;" parent="7Q0SSp4v-BBXig3MVqCc-333" vertex="1">
          <mxGeometry x="567.25" y="1118.25" width="200" height="30" as="geometry" />
        </mxCell>
        <mxCell id="7Q0SSp4v-BBXig3MVqCc-49" value="&lt;font style=&quot;font-size: 40px;&quot;&gt;256&lt;/font&gt;" style="text;html=1;strokeColor=none;fillColor=none;align=center;verticalAlign=middle;whiteSpace=wrap;rounded=0;fontStyle=1;fontSize=18;" parent="7Q0SSp4v-BBXig3MVqCc-333" vertex="1">
          <mxGeometry x="670" y="993" width="60" height="30" as="geometry" />
        </mxCell>
        <mxCell id="7Q0SSp4v-BBXig3MVqCc-50" value="&lt;font style=&quot;font-size: 40px;&quot;&gt;64 x 64&lt;/font&gt;" style="text;html=1;strokeColor=none;fillColor=none;align=center;verticalAlign=middle;whiteSpace=wrap;rounded=0;rotation=-90;fontSize=18;" parent="7Q0SSp4v-BBXig3MVqCc-333" vertex="1">
          <mxGeometry x="810.88" y="1118.88" width="206.25" height="30" as="geometry" />
        </mxCell>
        <mxCell id="7Q0SSp4v-BBXig3MVqCc-51" value="&lt;font style=&quot;font-size: 40px;&quot;&gt;66 x 66&lt;/font&gt;" style="text;html=1;strokeColor=none;fillColor=none;align=center;verticalAlign=middle;whiteSpace=wrap;rounded=0;rotation=-90;fontSize=18;" parent="7Q0SSp4v-BBXig3MVqCc-333" vertex="1">
          <mxGeometry x="676.5" y="1119.5" width="215" height="30" as="geometry" />
        </mxCell>
        <mxCell id="7Q0SSp4v-BBXig3MVqCc-52" value="&lt;font style=&quot;font-size: 40px;&quot;&gt;512&lt;/font&gt;" style="text;html=1;strokeColor=none;fillColor=none;align=center;verticalAlign=middle;whiteSpace=wrap;rounded=0;fontStyle=1;fontSize=18;" parent="7Q0SSp4v-BBXig3MVqCc-333" vertex="1">
          <mxGeometry x="927.5" y="993" width="60" height="30" as="geometry" />
        </mxCell>
        <mxCell id="7Q0SSp4v-BBXig3MVqCc-53" value="&lt;font style=&quot;font-size: 40px;&quot;&gt;512&lt;/font&gt;" style="text;html=1;strokeColor=none;fillColor=none;align=center;verticalAlign=middle;whiteSpace=wrap;rounded=0;fontStyle=1;fontSize=18;" parent="7Q0SSp4v-BBXig3MVqCc-333" vertex="1">
          <mxGeometry x="795" y="993" width="60" height="30" as="geometry" />
        </mxCell>
        <mxCell id="7Q0SSp4v-BBXig3MVqCc-54" value="" style="shape=singleArrow;whiteSpace=wrap;html=1;arrowWidth=0.5;arrowSize=0.4714285714285714;fillColor=#D970FF;fillStyle=solid;" parent="7Q0SSp4v-BBXig3MVqCc-333" vertex="1">
          <mxGeometry x="730" y="1118" width="40" height="30" as="geometry" />
        </mxCell>
        <mxCell id="7Q0SSp4v-BBXig3MVqCc-55" value="" style="shape=singleArrow;whiteSpace=wrap;html=1;arrowWidth=0.5;arrowSize=0.4714285714285714;fillColor=#D970FF;fillStyle=solid;" parent="7Q0SSp4v-BBXig3MVqCc-333" vertex="1">
          <mxGeometry x="855" y="1118" width="40" height="30" as="geometry" />
        </mxCell>
        <mxCell id="7Q0SSp4v-BBXig3MVqCc-56" value="" style="shape=singleArrow;whiteSpace=wrap;html=1;arrowWidth=0.5;arrowSize=0.4714285714285714;fillColor=#FF0000;fillStyle=solid;direction=south;" parent="7Q0SSp4v-BBXig3MVqCc-333" vertex="1">
          <mxGeometry x="942.5" y="1245" width="30" height="60" as="geometry" />
        </mxCell>
        <mxCell id="7Q0SSp4v-BBXig3MVqCc-58" value="" style="rounded=0;whiteSpace=wrap;html=1;strokeWidth=2;fillWeight=4;hachureGap=8;hachureAngle=45;fillColor=#1ba1e2;" parent="7Q0SSp4v-BBXig3MVqCc-333" vertex="1">
          <mxGeometry x="915" y="1355" width="85" height="60" as="geometry" />
        </mxCell>
        <mxCell id="7Q0SSp4v-BBXig3MVqCc-59" value="&lt;font style=&quot;font-size: 40px;&quot;&gt;32 x 32&lt;/font&gt;" style="text;html=1;strokeColor=none;fillColor=none;align=center;verticalAlign=middle;whiteSpace=wrap;rounded=0;rotation=-90;fontSize=18;" parent="7Q0SSp4v-BBXig3MVqCc-333" vertex="1">
          <mxGeometry x="825.25" y="1372.75" width="137.5" height="30" as="geometry" />
        </mxCell>
        <mxCell id="7Q0SSp4v-BBXig3MVqCc-60" value="&lt;font style=&quot;font-size: 40px;&quot;&gt;512&lt;/font&gt;" style="text;html=1;strokeColor=none;fillColor=none;align=center;verticalAlign=middle;whiteSpace=wrap;rounded=0;fontStyle=1;fontSize=18;" parent="7Q0SSp4v-BBXig3MVqCc-333" vertex="1">
          <mxGeometry x="927.5" y="1320" width="60" height="30" as="geometry" />
        </mxCell>
        <mxCell id="7Q0SSp4v-BBXig3MVqCc-61" value="" style="shape=singleArrow;whiteSpace=wrap;html=1;arrowWidth=0.5;arrowSize=0.4714285714285714;fillColor=#D970FF;fillStyle=solid;" parent="7Q0SSp4v-BBXig3MVqCc-333" vertex="1">
          <mxGeometry x="1020" y="1370" width="40" height="30" as="geometry" />
        </mxCell>
        <mxCell id="7Q0SSp4v-BBXig3MVqCc-62" value="" style="rounded=0;whiteSpace=wrap;html=1;strokeWidth=2;fillWeight=4;hachureGap=8;hachureAngle=45;fillColor=#1ba1e2;" parent="7Q0SSp4v-BBXig3MVqCc-333" vertex="1">
          <mxGeometry x="1100" y="1355" width="140" height="60" as="geometry" />
        </mxCell>
        <mxCell id="7Q0SSp4v-BBXig3MVqCc-63" value="&lt;font style=&quot;font-size: 40px;&quot;&gt;30 x 30&lt;/font&gt;" style="text;html=1;strokeColor=none;fillColor=none;align=center;verticalAlign=middle;whiteSpace=wrap;rounded=0;rotation=-90;fontSize=18;" parent="7Q0SSp4v-BBXig3MVqCc-333" vertex="1">
          <mxGeometry x="1010" y="1372" width="140" height="30" as="geometry" />
        </mxCell>
        <mxCell id="7Q0SSp4v-BBXig3MVqCc-64" value="&lt;font style=&quot;font-size: 40px;&quot;&gt;1024&lt;/font&gt;" style="text;html=1;strokeColor=none;fillColor=none;align=center;verticalAlign=middle;whiteSpace=wrap;rounded=0;fontStyle=1;fontSize=18;" parent="7Q0SSp4v-BBXig3MVqCc-333" vertex="1">
          <mxGeometry x="1140" y="1320" width="60" height="30" as="geometry" />
        </mxCell>
        <mxCell id="7Q0SSp4v-BBXig3MVqCc-65" value="" style="shape=singleArrow;whiteSpace=wrap;html=1;arrowWidth=0.5;arrowSize=0.4714285714285714;fillColor=#D970FF;fillStyle=solid;" parent="7Q0SSp4v-BBXig3MVqCc-333" vertex="1">
          <mxGeometry x="1260" y="1370" width="40" height="30" as="geometry" />
        </mxCell>
        <mxCell id="7Q0SSp4v-BBXig3MVqCc-66" value="" style="rounded=0;whiteSpace=wrap;html=1;strokeWidth=2;fillWeight=4;hachureGap=8;hachureAngle=45;fillColor=#1ba1e2;" parent="7Q0SSp4v-BBXig3MVqCc-333" vertex="1">
          <mxGeometry x="1340" y="1355" width="140" height="60" as="geometry" />
        </mxCell>
        <mxCell id="7Q0SSp4v-BBXig3MVqCc-67" value="&lt;font style=&quot;font-size: 40px;&quot;&gt;28 x 28&lt;/font&gt;" style="text;html=1;strokeColor=none;fillColor=none;align=center;verticalAlign=middle;whiteSpace=wrap;rounded=0;rotation=-90;fontSize=18;" parent="7Q0SSp4v-BBXig3MVqCc-333" vertex="1">
          <mxGeometry x="1251" y="1372" width="140" height="30" as="geometry" />
        </mxCell>
        <mxCell id="7Q0SSp4v-BBXig3MVqCc-68" value="&lt;font style=&quot;font-size: 40px;&quot;&gt;1024&lt;/font&gt;" style="text;html=1;strokeColor=none;fillColor=none;align=center;verticalAlign=middle;whiteSpace=wrap;rounded=0;fontStyle=1;fontSize=18;" parent="7Q0SSp4v-BBXig3MVqCc-333" vertex="1">
          <mxGeometry x="1380" y="1320" width="60" height="30" as="geometry" />
        </mxCell>
        <mxCell id="7Q0SSp4v-BBXig3MVqCc-70" value="" style="shape=singleArrow;whiteSpace=wrap;html=1;arrowWidth=0.4666666666666515;arrowSize=0.2194444444444438;fillColor=#00FF00;fillStyle=solid;direction=north;" parent="7Q0SSp4v-BBXig3MVqCc-333" vertex="1">
          <mxGeometry x="1395" y="1185" width="30" height="120" as="geometry" />
        </mxCell>
        <mxCell id="7Q0SSp4v-BBXig3MVqCc-74" value="&lt;font style=&quot;font-size: 40px;&quot;&gt;56 x 56&lt;/font&gt;" style="text;html=1;strokeColor=none;fillColor=none;align=center;verticalAlign=middle;whiteSpace=wrap;rounded=0;rotation=-90;fontSize=18;" parent="7Q0SSp4v-BBXig3MVqCc-333" vertex="1">
          <mxGeometry x="1260" y="1122" width="140" height="30" as="geometry" />
        </mxCell>
        <mxCell id="7Q0SSp4v-BBXig3MVqCc-75" value="&lt;font style=&quot;font-size: 40px;&quot;&gt;1024&lt;/font&gt;" style="text;html=1;strokeColor=none;fillColor=none;align=center;verticalAlign=middle;whiteSpace=wrap;rounded=0;fontStyle=1;fontSize=18;" parent="7Q0SSp4v-BBXig3MVqCc-333" vertex="1">
          <mxGeometry x="1390" y="1070" width="60" height="30" as="geometry" />
        </mxCell>
        <mxCell id="7Q0SSp4v-BBXig3MVqCc-76" value="" style="rounded=0;whiteSpace=wrap;html=1;strokeWidth=2;fillWeight=4;hachureGap=8;hachureAngle=45;fillColor=#1ba1e2;" parent="7Q0SSp4v-BBXig3MVqCc-333" vertex="1">
          <mxGeometry x="1590" y="1105" width="110" height="60" as="geometry" />
        </mxCell>
        <mxCell id="7Q0SSp4v-BBXig3MVqCc-78" value="&lt;font style=&quot;font-size: 40px;&quot;&gt;54 x 54&lt;/font&gt;" style="text;html=1;strokeColor=none;fillColor=none;align=center;verticalAlign=middle;whiteSpace=wrap;rounded=0;rotation=-90;fontSize=18;" parent="7Q0SSp4v-BBXig3MVqCc-333" vertex="1">
          <mxGeometry x="1500" y="1122" width="140" height="30" as="geometry" />
        </mxCell>
        <mxCell id="7Q0SSp4v-BBXig3MVqCc-79" value="&lt;font style=&quot;font-size: 40px;&quot;&gt;512&lt;/font&gt;" style="text;html=1;strokeColor=none;fillColor=none;align=center;verticalAlign=middle;whiteSpace=wrap;rounded=0;fontStyle=1;fontSize=18;" parent="7Q0SSp4v-BBXig3MVqCc-333" vertex="1">
          <mxGeometry x="1615" y="1070" width="60" height="30" as="geometry" />
        </mxCell>
        <mxCell id="7Q0SSp4v-BBXig3MVqCc-80" value="" style="shape=singleArrow;whiteSpace=wrap;html=1;arrowWidth=0.5;arrowSize=0.4714285714285714;fillColor=#D970FF;fillStyle=solid;" parent="7Q0SSp4v-BBXig3MVqCc-333" vertex="1">
          <mxGeometry x="1510" y="1120" width="40" height="30" as="geometry" />
        </mxCell>
        <mxCell id="7Q0SSp4v-BBXig3MVqCc-84" value="" style="rounded=0;whiteSpace=wrap;html=1;strokeWidth=2;fillWeight=4;hachureGap=8;hachureAngle=45;fillColor=#1ba1e2;" parent="7Q0SSp4v-BBXig3MVqCc-333" vertex="1">
          <mxGeometry x="1800" y="1105" width="110" height="60" as="geometry" />
        </mxCell>
        <mxCell id="7Q0SSp4v-BBXig3MVqCc-85" value="&lt;font style=&quot;font-size: 40px;&quot;&gt;52 x 52&lt;/font&gt;" style="text;html=1;strokeColor=none;fillColor=none;align=center;verticalAlign=middle;whiteSpace=wrap;rounded=0;rotation=-90;fontSize=18;" parent="7Q0SSp4v-BBXig3MVqCc-333" vertex="1">
          <mxGeometry x="1710" y="1122" width="140" height="30" as="geometry" />
        </mxCell>
        <mxCell id="7Q0SSp4v-BBXig3MVqCc-86" value="&lt;font style=&quot;font-size: 40px;&quot;&gt;512&lt;/font&gt;" style="text;html=1;strokeColor=none;fillColor=none;align=center;verticalAlign=middle;whiteSpace=wrap;rounded=0;fontStyle=1;fontSize=18;" parent="7Q0SSp4v-BBXig3MVqCc-333" vertex="1">
          <mxGeometry x="1825" y="1070" width="60" height="30" as="geometry" />
        </mxCell>
        <mxCell id="7Q0SSp4v-BBXig3MVqCc-87" value="" style="shape=singleArrow;whiteSpace=wrap;html=1;arrowWidth=0.5;arrowSize=0.4714285714285714;fillColor=#D970FF;fillStyle=solid;" parent="7Q0SSp4v-BBXig3MVqCc-333" vertex="1">
          <mxGeometry x="1720" y="1120" width="40" height="30" as="geometry" />
        </mxCell>
        <mxCell id="7Q0SSp4v-BBXig3MVqCc-90" value="" style="shape=singleArrow;whiteSpace=wrap;html=1;arrowWidth=0.5714285714285627;arrowSize=0.18;fillColor=#000000;fillStyle=solid;fontColor=#333333;strokeColor=#666666;" parent="7Q0SSp4v-BBXig3MVqCc-333" vertex="1">
          <mxGeometry x="1000" y="1112.5" width="300" height="45" as="geometry" />
        </mxCell>
        <mxCell id="7Q0SSp4v-BBXig3MVqCc-91" value="" style="shape=singleArrow;whiteSpace=wrap;html=1;arrowWidth=0.4;arrowSize=0.13529411764705881;fillColor=#00FF00;fillStyle=solid;direction=north;" parent="7Q0SSp4v-BBXig3MVqCc-333" vertex="1">
          <mxGeometry x="1840" y="895" width="30" height="170" as="geometry" />
        </mxCell>
        <mxCell id="7Q0SSp4v-BBXig3MVqCc-105" value="" style="group" parent="7Q0SSp4v-BBXig3MVqCc-333" vertex="1" connectable="0">
          <mxGeometry x="1350" y="1105" width="140" height="60" as="geometry" />
        </mxCell>
        <mxCell id="7Q0SSp4v-BBXig3MVqCc-72" value="" style="rounded=0;whiteSpace=wrap;html=1;strokeWidth=2;fillWeight=4;hachureGap=8;hachureAngle=45;fillColor=#1ba1e2;" parent="7Q0SSp4v-BBXig3MVqCc-105" vertex="1">
          <mxGeometry x="70" width="70" height="60" as="geometry" />
        </mxCell>
        <mxCell id="7Q0SSp4v-BBXig3MVqCc-73" value="" style="rounded=0;whiteSpace=wrap;html=1;strokeWidth=2;fillWeight=4;hachureGap=8;hachureAngle=45;" parent="7Q0SSp4v-BBXig3MVqCc-105" vertex="1">
          <mxGeometry width="70" height="60" as="geometry" />
        </mxCell>
        <mxCell id="7Q0SSp4v-BBXig3MVqCc-177" value="" style="group" parent="7Q0SSp4v-BBXig3MVqCc-333" vertex="1" connectable="0">
          <mxGeometry x="2180" y="375" width="357.5" height="200" as="geometry" />
        </mxCell>
        <mxCell id="7Q0SSp4v-BBXig3MVqCc-111" value="&lt;font style=&quot;font-size: 40px;&quot;&gt;200 x 200&lt;/font&gt;" style="text;html=1;strokeColor=none;fillColor=none;align=center;verticalAlign=middle;whiteSpace=wrap;rounded=0;rotation=-90;fontSize=18;" parent="7Q0SSp4v-BBXig3MVqCc-177" vertex="1">
          <mxGeometry x="-80.5" y="107.5" width="185" height="30" as="geometry" />
        </mxCell>
        <mxCell id="7Q0SSp4v-BBXig3MVqCc-112" value="&lt;font style=&quot;font-size: 40px;&quot;&gt;256&lt;/font&gt;" style="text;html=1;strokeColor=none;fillColor=none;align=center;verticalAlign=middle;whiteSpace=wrap;rounded=0;fontStyle=1;fontSize=18;" parent="7Q0SSp4v-BBXig3MVqCc-177" vertex="1">
          <mxGeometry x="25" width="60" height="30" as="geometry" />
        </mxCell>
        <mxCell id="7Q0SSp4v-BBXig3MVqCc-114" value="&lt;font style=&quot;font-size: 40px;&quot;&gt;198 x 198&lt;/font&gt;" style="text;html=1;strokeColor=none;fillColor=none;align=center;verticalAlign=middle;whiteSpace=wrap;rounded=0;rotation=-90;fontSize=18;" parent="7Q0SSp4v-BBXig3MVqCc-177" vertex="1">
          <mxGeometry x="44.75" y="108.75" width="187.5" height="30" as="geometry" />
        </mxCell>
        <mxCell id="7Q0SSp4v-BBXig3MVqCc-115" value="&lt;font style=&quot;font-size: 40px;&quot;&gt;128&lt;/font&gt;" style="text;html=1;strokeColor=none;fillColor=none;align=center;verticalAlign=middle;whiteSpace=wrap;rounded=0;fontStyle=1;fontSize=18;" parent="7Q0SSp4v-BBXig3MVqCc-177" vertex="1">
          <mxGeometry x="139.3800000000001" width="60" height="30" as="geometry" />
        </mxCell>
        <mxCell id="7Q0SSp4v-BBXig3MVqCc-116" value="" style="shape=singleArrow;whiteSpace=wrap;html=1;arrowWidth=0.5;arrowSize=0.4714285714285714;fillColor=#D970FF;fillStyle=solid;" parent="7Q0SSp4v-BBXig3MVqCc-177" vertex="1">
          <mxGeometry x="86.25" y="95" width="40" height="30" as="geometry" />
        </mxCell>
        <mxCell id="7Q0SSp4v-BBXig3MVqCc-118" value="&lt;font style=&quot;font-size: 40px;&quot;&gt;196 x 196&lt;/font&gt;" style="text;html=1;strokeColor=none;fillColor=none;align=center;verticalAlign=middle;whiteSpace=wrap;rounded=0;rotation=-90;fontSize=18;" parent="7Q0SSp4v-BBXig3MVqCc-177" vertex="1">
          <mxGeometry x="164" y="107.75" width="185" height="30" as="geometry" />
        </mxCell>
        <mxCell id="7Q0SSp4v-BBXig3MVqCc-119" value="&lt;font style=&quot;font-size: 40px;&quot;&gt;128&lt;/font&gt;" style="text;html=1;strokeColor=none;fillColor=none;align=center;verticalAlign=middle;whiteSpace=wrap;rounded=0;fontStyle=1;fontSize=18;" parent="7Q0SSp4v-BBXig3MVqCc-177" vertex="1">
          <mxGeometry x="255" width="60" height="30" as="geometry" />
        </mxCell>
        <mxCell id="7Q0SSp4v-BBXig3MVqCc-120" value="" style="shape=singleArrow;whiteSpace=wrap;html=1;arrowWidth=0.5;arrowSize=0.4714285714285714;fillColor=#D970FF;fillStyle=solid;" parent="7Q0SSp4v-BBXig3MVqCc-177" vertex="1">
          <mxGeometry x="202.5" y="95" width="40" height="30" as="geometry" />
        </mxCell>
        <mxCell id="7Q0SSp4v-BBXig3MVqCc-113" value="" style="rounded=0;whiteSpace=wrap;html=1;strokeWidth=2;fillWeight=4;hachureGap=8;hachureAngle=45;fillColor=#1ba1e2;" parent="7Q0SSp4v-BBXig3MVqCc-177" vertex="1">
          <mxGeometry x="158.75" y="30" width="25" height="170" as="geometry" />
        </mxCell>
        <mxCell id="7Q0SSp4v-BBXig3MVqCc-117" value="" style="rounded=0;whiteSpace=wrap;html=1;strokeWidth=2;fillWeight=4;hachureGap=8;hachureAngle=45;fillColor=#1ba1e2;" parent="7Q0SSp4v-BBXig3MVqCc-177" vertex="1">
          <mxGeometry x="276.25" y="30" width="20" height="170" as="geometry" />
        </mxCell>
        <mxCell id="7Q0SSp4v-BBXig3MVqCc-121" value="" style="group" parent="7Q0SSp4v-BBXig3MVqCc-177" vertex="1" connectable="0">
          <mxGeometry x="32.5" y="30" width="42.5" height="170" as="geometry" />
        </mxCell>
        <mxCell id="7Q0SSp4v-BBXig3MVqCc-122" value="" style="rounded=0;whiteSpace=wrap;html=1;strokeWidth=2;fillWeight=4;hachureGap=8;hachureAngle=45;fillColor=#1ba1e2;" parent="7Q0SSp4v-BBXig3MVqCc-121" vertex="1">
          <mxGeometry x="21.25" width="21.25" height="170" as="geometry" />
        </mxCell>
        <mxCell id="7Q0SSp4v-BBXig3MVqCc-123" value="" style="rounded=0;whiteSpace=wrap;html=1;strokeWidth=2;fillWeight=4;hachureGap=8;hachureAngle=45;" parent="7Q0SSp4v-BBXig3MVqCc-121" vertex="1">
          <mxGeometry width="22.173913043478258" height="170" as="geometry" />
        </mxCell>
        <mxCell id="7Q0SSp4v-BBXig3MVqCc-179" value="" style="group" parent="7Q0SSp4v-BBXig3MVqCc-333" vertex="1" connectable="0">
          <mxGeometry x="1760" y="725" width="517.5" height="152.5" as="geometry" />
        </mxCell>
        <mxCell id="7Q0SSp4v-BBXig3MVqCc-94" value="&lt;font style=&quot;font-size: 40px;&quot;&gt;104 x 104&lt;/font&gt;" style="text;html=1;strokeColor=none;fillColor=none;align=center;verticalAlign=middle;whiteSpace=wrap;rounded=0;rotation=-90;fontSize=18;" parent="7Q0SSp4v-BBXig3MVqCc-179" vertex="1">
          <mxGeometry x="-75.5" y="75" width="195" height="30" as="geometry" />
        </mxCell>
        <mxCell id="7Q0SSp4v-BBXig3MVqCc-95" value="&lt;font style=&quot;font-size: 40px;&quot;&gt;512&lt;/font&gt;" style="text;html=1;strokeColor=none;fillColor=none;align=center;verticalAlign=middle;whiteSpace=wrap;rounded=0;fontStyle=1;fontSize=18;" parent="7Q0SSp4v-BBXig3MVqCc-179" vertex="1">
          <mxGeometry x="70" y="-4" width="60" height="30" as="geometry" />
        </mxCell>
        <mxCell id="7Q0SSp4v-BBXig3MVqCc-96" value="" style="rounded=0;whiteSpace=wrap;html=1;strokeWidth=2;fillWeight=4;hachureGap=8;hachureAngle=45;fillColor=#1ba1e2;" parent="7Q0SSp4v-BBXig3MVqCc-179" vertex="1">
          <mxGeometry x="260" y="30" width="90" height="120" as="geometry" />
        </mxCell>
        <mxCell id="7Q0SSp4v-BBXig3MVqCc-97" value="&lt;font style=&quot;font-size: 40px;&quot;&gt;102 x 102&lt;/font&gt;" style="text;html=1;strokeColor=none;fillColor=none;align=center;verticalAlign=middle;whiteSpace=wrap;rounded=0;rotation=-90;fontSize=18;" parent="7Q0SSp4v-BBXig3MVqCc-179" vertex="1">
          <mxGeometry x="149.5" y="75" width="180" height="30" as="geometry" />
        </mxCell>
        <mxCell id="7Q0SSp4v-BBXig3MVqCc-98" value="&lt;font style=&quot;font-size: 40px;&quot;&gt;256&lt;/font&gt;" style="text;html=1;strokeColor=none;fillColor=none;align=center;verticalAlign=middle;whiteSpace=wrap;rounded=0;fontStyle=1;fontSize=18;" parent="7Q0SSp4v-BBXig3MVqCc-179" vertex="1">
          <mxGeometry x="275" y="-4" width="60" height="30" as="geometry" />
        </mxCell>
        <mxCell id="7Q0SSp4v-BBXig3MVqCc-99" value="" style="shape=singleArrow;whiteSpace=wrap;html=1;arrowWidth=0.5;arrowSize=0.4714285714285714;fillColor=#D970FF;fillStyle=solid;" parent="7Q0SSp4v-BBXig3MVqCc-179" vertex="1">
          <mxGeometry x="175" y="75" width="40" height="30" as="geometry" />
        </mxCell>
        <mxCell id="7Q0SSp4v-BBXig3MVqCc-100" value="" style="rounded=0;whiteSpace=wrap;html=1;strokeWidth=2;fillWeight=4;hachureGap=8;hachureAngle=45;fillColor=#1ba1e2;" parent="7Q0SSp4v-BBXig3MVqCc-179" vertex="1">
          <mxGeometry x="445" y="30" width="60" height="120" as="geometry" />
        </mxCell>
        <mxCell id="7Q0SSp4v-BBXig3MVqCc-101" value="&lt;font style=&quot;font-size: 40px;&quot;&gt;100 x 100&lt;/font&gt;" style="text;html=1;strokeColor=none;fillColor=none;align=center;verticalAlign=middle;whiteSpace=wrap;rounded=0;rotation=-90;fontSize=18;" parent="7Q0SSp4v-BBXig3MVqCc-179" vertex="1">
          <mxGeometry x="332.5" y="75" width="185" height="30" as="geometry" />
        </mxCell>
        <mxCell id="7Q0SSp4v-BBXig3MVqCc-102" value="&lt;font style=&quot;font-size: 40px;&quot;&gt;256&lt;/font&gt;" style="text;html=1;strokeColor=none;fillColor=none;align=center;verticalAlign=middle;whiteSpace=wrap;rounded=0;fontStyle=1;fontSize=18;" parent="7Q0SSp4v-BBXig3MVqCc-179" vertex="1">
          <mxGeometry x="445" y="-4" width="60" height="30" as="geometry" />
        </mxCell>
        <mxCell id="7Q0SSp4v-BBXig3MVqCc-103" value="" style="shape=singleArrow;whiteSpace=wrap;html=1;arrowWidth=0.5;arrowSize=0.4714285714285714;fillColor=#D970FF;fillStyle=solid;" parent="7Q0SSp4v-BBXig3MVqCc-179" vertex="1">
          <mxGeometry x="365" y="75" width="40" height="30" as="geometry" />
        </mxCell>
        <mxCell id="7Q0SSp4v-BBXig3MVqCc-104" value="" style="group" parent="7Q0SSp4v-BBXig3MVqCc-179" vertex="1" connectable="0">
          <mxGeometry x="42.5" y="30" width="115" height="120" as="geometry" />
        </mxCell>
        <mxCell id="7Q0SSp4v-BBXig3MVqCc-92" value="" style="rounded=0;whiteSpace=wrap;html=1;strokeWidth=2;fillWeight=4;hachureGap=8;hachureAngle=45;fillColor=#1ba1e2;" parent="7Q0SSp4v-BBXig3MVqCc-104" vertex="1">
          <mxGeometry x="57.5" width="57.5" height="120" as="geometry" />
        </mxCell>
        <mxCell id="7Q0SSp4v-BBXig3MVqCc-93" value="" style="rounded=0;whiteSpace=wrap;html=1;strokeWidth=2;fillWeight=4;hachureGap=8;hachureAngle=45;" parent="7Q0SSp4v-BBXig3MVqCc-104" vertex="1">
          <mxGeometry width="60" height="120" as="geometry" />
        </mxCell>
        <mxCell id="7Q0SSp4v-BBXig3MVqCc-183" value="" style="shape=singleArrow;whiteSpace=wrap;html=1;arrowWidth=0.4;arrowSize=0.13529411764705881;fillColor=#00FF00;fillStyle=solid;direction=north;" parent="7Q0SSp4v-BBXig3MVqCc-333" vertex="1">
          <mxGeometry x="2220" y="595" width="30" height="115" as="geometry" />
        </mxCell>
        <mxCell id="7Q0SSp4v-BBXig3MVqCc-185" value="" style="shape=singleArrow;whiteSpace=wrap;html=1;arrowWidth=0.36666666666666664;arrowSize=0.5166666666666628;fillColor=#00FF00;fillStyle=solid;direction=north;" parent="7Q0SSp4v-BBXig3MVqCc-333" vertex="1">
          <mxGeometry x="2450" y="305" width="30" height="60" as="geometry" />
        </mxCell>
        <mxCell id="7Q0SSp4v-BBXig3MVqCc-157" value="&lt;font style=&quot;font-size: 40px;&quot;&gt;128&lt;/font&gt;" style="text;html=1;strokeColor=none;fillColor=none;align=center;verticalAlign=middle;whiteSpace=wrap;rounded=0;fontStyle=1;fontSize=18;" parent="7Q0SSp4v-BBXig3MVqCc-333" vertex="1">
          <mxGeometry x="2432.5" y="3" width="60" height="30" as="geometry" />
        </mxCell>
        <mxCell id="7Q0SSp4v-BBXig3MVqCc-159" value="&lt;font style=&quot;font-size: 40px;&quot;&gt;64&lt;/font&gt;" style="text;html=1;strokeColor=none;fillColor=none;align=center;verticalAlign=middle;whiteSpace=wrap;rounded=0;fontStyle=1;fontSize=18;" parent="7Q0SSp4v-BBXig3MVqCc-333" vertex="1">
          <mxGeometry x="2550" y="3" width="60" height="30" as="geometry" />
        </mxCell>
        <mxCell id="7Q0SSp4v-BBXig3MVqCc-162" value="&lt;font style=&quot;font-size: 40px;&quot;&gt;64&lt;/font&gt;" style="text;html=1;strokeColor=none;fillColor=none;align=center;verticalAlign=middle;whiteSpace=wrap;rounded=0;fontStyle=1;fontSize=18;" parent="7Q0SSp4v-BBXig3MVqCc-333" vertex="1">
          <mxGeometry x="2676.25" y="3" width="60" height="30" as="geometry" />
        </mxCell>
        <mxCell id="7Q0SSp4v-BBXig3MVqCc-164" value="" style="rounded=0;whiteSpace=wrap;html=1;strokeWidth=2;fillWeight=4;hachureGap=8;hachureAngle=45;fillColor=#1ba1e2;" parent="7Q0SSp4v-BBXig3MVqCc-333" vertex="1">
          <mxGeometry x="2568.75" y="40" width="25" height="239.99999999999997" as="geometry" />
        </mxCell>
        <mxCell id="7Q0SSp4v-BBXig3MVqCc-165" value="" style="rounded=0;whiteSpace=wrap;html=1;strokeWidth=2;fillWeight=4;hachureGap=8;hachureAngle=45;fillColor=#1ba1e2;" parent="7Q0SSp4v-BBXig3MVqCc-333" vertex="1">
          <mxGeometry x="2696.25" y="40" width="20" height="239.99999999999997" as="geometry" />
        </mxCell>
        <mxCell id="7Q0SSp4v-BBXig3MVqCc-166" value="" style="group" parent="7Q0SSp4v-BBXig3MVqCc-333" vertex="1" connectable="0">
          <mxGeometry x="2442.5" y="40" width="42.5" height="239.99999999999997" as="geometry" />
        </mxCell>
        <mxCell id="7Q0SSp4v-BBXig3MVqCc-167" value="" style="rounded=0;whiteSpace=wrap;html=1;strokeWidth=2;fillWeight=4;hachureGap=8;hachureAngle=45;fillColor=#1ba1e2;" parent="7Q0SSp4v-BBXig3MVqCc-166" vertex="1">
          <mxGeometry x="21.25" width="21.25" height="239.99999999999997" as="geometry" />
        </mxCell>
        <mxCell id="7Q0SSp4v-BBXig3MVqCc-168" value="" style="rounded=0;whiteSpace=wrap;html=1;strokeWidth=2;fillWeight=4;hachureGap=8;hachureAngle=45;" parent="7Q0SSp4v-BBXig3MVqCc-166" vertex="1">
          <mxGeometry width="22.173913043478258" height="239.99999999999997" as="geometry" />
        </mxCell>
        <mxCell id="7Q0SSp4v-BBXig3MVqCc-156" value="&lt;font style=&quot;font-size: 40px;&quot;&gt;392 x 392&lt;/font&gt;" style="text;html=1;strokeColor=none;fillColor=none;align=center;verticalAlign=middle;whiteSpace=wrap;rounded=0;rotation=-90;fontSize=18;" parent="7Q0SSp4v-BBXig3MVqCc-333" vertex="1">
          <mxGeometry x="2328.5" y="138" width="185" height="30" as="geometry" />
        </mxCell>
        <mxCell id="7Q0SSp4v-BBXig3MVqCc-158" value="&lt;font style=&quot;font-size: 40px;&quot;&gt;390 x 390&lt;/font&gt;" style="text;html=1;strokeColor=none;fillColor=none;align=center;verticalAlign=middle;whiteSpace=wrap;rounded=0;rotation=-90;fontSize=18;" parent="7Q0SSp4v-BBXig3MVqCc-333" vertex="1">
          <mxGeometry x="2456.63" y="137.12" width="181.25" height="30" as="geometry" />
        </mxCell>
        <mxCell id="7Q0SSp4v-BBXig3MVqCc-160" value="" style="shape=singleArrow;whiteSpace=wrap;html=1;arrowWidth=0.5;arrowSize=0.4714285714285714;fillColor=#D970FF;fillStyle=solid;" parent="7Q0SSp4v-BBXig3MVqCc-333" vertex="1">
          <mxGeometry x="2495" y="142.5" width="40" height="30" as="geometry" />
        </mxCell>
        <mxCell id="7Q0SSp4v-BBXig3MVqCc-161" value="&lt;font style=&quot;font-size: 40px;&quot;&gt;388 x 388&lt;/font&gt;" style="text;html=1;strokeColor=none;fillColor=none;align=center;verticalAlign=middle;whiteSpace=wrap;rounded=0;rotation=-90;fontSize=18;" parent="7Q0SSp4v-BBXig3MVqCc-333" vertex="1">
          <mxGeometry x="2581.13" y="136.62" width="186.25" height="30" as="geometry" />
        </mxCell>
        <mxCell id="7Q0SSp4v-BBXig3MVqCc-163" value="" style="shape=singleArrow;whiteSpace=wrap;html=1;arrowWidth=0.5;arrowSize=0.4714285714285714;fillColor=#D970FF;fillStyle=solid;" parent="7Q0SSp4v-BBXig3MVqCc-333" vertex="1">
          <mxGeometry x="2611.25" y="142.5" width="40" height="30" as="geometry" />
        </mxCell>
        <mxCell id="7Q0SSp4v-BBXig3MVqCc-173" value="&lt;font style=&quot;font-size: 40px;&quot;&gt;2&lt;/font&gt;" style="text;html=1;strokeColor=none;fillColor=none;align=center;verticalAlign=middle;whiteSpace=wrap;rounded=0;fontStyle=1;fontSize=18;" parent="7Q0SSp4v-BBXig3MVqCc-333" vertex="1">
          <mxGeometry x="2880" y="-6" width="60" height="30" as="geometry" />
        </mxCell>
        <mxCell id="7Q0SSp4v-BBXig3MVqCc-174" value="" style="rounded=0;whiteSpace=wrap;html=1;strokeWidth=2;fillWeight=4;hachureGap=8;hachureAngle=45;fillColor=#1ba1e2;" parent="7Q0SSp4v-BBXig3MVqCc-333" vertex="1">
          <mxGeometry x="2900" y="30" width="20" height="239.99999999999997" as="geometry" />
        </mxCell>
        <mxCell id="7Q0SSp4v-BBXig3MVqCc-175" value="&lt;font style=&quot;font-size: 40px;&quot;&gt;388 x 388&lt;/font&gt;" style="text;html=1;strokeColor=none;fillColor=none;align=center;verticalAlign=middle;whiteSpace=wrap;rounded=0;rotation=-90;fontSize=18;" parent="7Q0SSp4v-BBXig3MVqCc-333" vertex="1">
          <mxGeometry x="2790" y="137.5" width="180" height="30" as="geometry" />
        </mxCell>
        <mxCell id="7Q0SSp4v-BBXig3MVqCc-176" value="" style="shape=singleArrow;whiteSpace=wrap;html=1;arrowWidth=0.4925925925925943;arrowSize=0.32688172043010755;fillColor=#00EEFF;fillStyle=solid;" parent="7Q0SSp4v-BBXig3MVqCc-333" vertex="1">
          <mxGeometry x="2743.75" y="142.5" width="116.25" height="30" as="geometry" />
        </mxCell>
        <mxCell id="7Q0SSp4v-BBXig3MVqCc-186" value="" style="shape=singleArrow;whiteSpace=wrap;html=1;arrowWidth=0.40559440559440635;arrowSize=0.06504854368932039;fillColor=#000000;fillStyle=solid;fontColor=#000000;strokeColor=#666666;" parent="7Q0SSp4v-BBXig3MVqCc-333" vertex="1">
          <mxGeometry x="310" y="85" width="2060" height="110" as="geometry" />
        </mxCell>
        <mxCell id="7Q0SSp4v-BBXig3MVqCc-187" value="" style="shape=singleArrow;whiteSpace=wrap;html=1;arrowWidth=0.5714285714285627;arrowSize=0.18;fillColor=#000000;fillStyle=solid;fontColor=#333333;strokeColor=#666666;" parent="7Q0SSp4v-BBXig3MVqCc-333" vertex="1">
          <mxGeometry x="770" y="755" width="950" height="90" as="geometry" />
        </mxCell>
        <mxCell id="7Q0SSp4v-BBXig3MVqCc-188" value="" style="shape=singleArrow;whiteSpace=wrap;html=1;arrowWidth=0.476543209876546;arrowSize=0.06833333333333315;fillColor=#000000;fillStyle=solid;fontColor=#333333;strokeColor=#666666;" parent="7Q0SSp4v-BBXig3MVqCc-333" vertex="1">
          <mxGeometry x="550" y="435" width="1600" height="90" as="geometry" />
        </mxCell>
        <mxCell id="7Q0SSp4v-BBXig3MVqCc-189" value="&lt;font style=&quot;font-size: 50px;&quot;&gt;Output&lt;br style=&quot;&quot;&gt;Segment&amp;nbsp;&lt;br style=&quot;&quot;&gt;Map&lt;/font&gt;" style="text;html=1;strokeColor=none;fillColor=none;align=center;verticalAlign=middle;whiteSpace=wrap;rounded=0;fontSize=36;" parent="7Q0SSp4v-BBXig3MVqCc-333" vertex="1">
          <mxGeometry x="2880" y="369" width="60" height="30" as="geometry" />
        </mxCell>
        <mxCell id="7Q0SSp4v-BBXig3MVqCc-330" value="" style="group" parent="7Q0SSp4v-BBXig3MVqCc-333" vertex="1" connectable="0">
          <mxGeometry x="2273.75" y="1015" width="400" height="399.75" as="geometry" />
        </mxCell>
        <mxCell id="7Q0SSp4v-BBXig3MVqCc-331" value="" style="whiteSpace=wrap;html=1;aspect=fixed;" parent="7Q0SSp4v-BBXig3MVqCc-330" vertex="1">
          <mxGeometry x="-16" y="-16.25" width="416" height="416" as="geometry" />
        </mxCell>
        <mxCell id="7Q0SSp4v-BBXig3MVqCc-191" value="" style="shape=singleArrow;whiteSpace=wrap;html=1;arrowWidth=0.4825396825396941;arrowSize=0.4457142857142935;fillColor=#00EEFF;fillStyle=solid;" parent="7Q0SSp4v-BBXig3MVqCc-330" vertex="1">
          <mxGeometry y="315" width="80" height="48.75" as="geometry" />
        </mxCell>
        <mxCell id="7Q0SSp4v-BBXig3MVqCc-192" value="" style="shape=singleArrow;whiteSpace=wrap;html=1;arrowWidth=0.4857142857143117;arrowSize=0.5603174603174618;fillColor=#00FF00;fillStyle=solid;direction=north;" parent="7Q0SSp4v-BBXig3MVqCc-330" vertex="1">
          <mxGeometry x="8" y="157.5" width="48" height="48.75" as="geometry" />
        </mxCell>
        <mxCell id="7Q0SSp4v-BBXig3MVqCc-321" value="" style="shape=singleArrow;whiteSpace=wrap;html=1;arrowWidth=0.5;arrowSize=0.4714285714285714;fillColor=#D970FF;fillStyle=solid;" parent="7Q0SSp4v-BBXig3MVqCc-330" vertex="1">
          <mxGeometry x="8" y="15" width="64" height="48.75" as="geometry" />
        </mxCell>
        <mxCell id="7Q0SSp4v-BBXig3MVqCc-322" value="" style="shape=singleArrow;whiteSpace=wrap;html=1;arrowWidth=0.4666666666666667;arrowSize=0.5666666666666667;fillColor=#FF0000;fillStyle=solid;direction=south;" parent="7Q0SSp4v-BBXig3MVqCc-330" vertex="1">
          <mxGeometry x="8" y="235" width="48" height="48.75" as="geometry" />
        </mxCell>
        <mxCell id="7Q0SSp4v-BBXig3MVqCc-323" value="" style="shape=singleArrow;whiteSpace=wrap;html=1;arrowWidth=0.41714285714286237;arrowSize=0.5214285714285779;fillColor=#000000;fillStyle=solid;fontColor=#333333;strokeColor=#666666;" parent="7Q0SSp4v-BBXig3MVqCc-330" vertex="1">
          <mxGeometry x="8" y="89.06" width="64" height="40.625" as="geometry" />
        </mxCell>
        <mxCell id="7Q0SSp4v-BBXig3MVqCc-324" value="&lt;font style=&quot;font-size: 40px;&quot;&gt;Conv 3x3, ReLU&lt;/font&gt;" style="text;html=1;strokeColor=none;fillColor=none;align=center;verticalAlign=middle;whiteSpace=wrap;rounded=0;fontSize=16;" parent="7Q0SSp4v-BBXig3MVqCc-330" vertex="1">
          <mxGeometry x="80" y="15" width="310" height="48.75" as="geometry" />
        </mxCell>
        <mxCell id="7Q0SSp4v-BBXig3MVqCc-326" value="&lt;font style=&quot;font-size: 40px;&quot;&gt;Copy and Crop&lt;/font&gt;" style="text;html=1;strokeColor=none;fillColor=none;align=center;verticalAlign=middle;whiteSpace=wrap;rounded=0;fontSize=16;" parent="7Q0SSp4v-BBXig3MVqCc-330" vertex="1">
          <mxGeometry x="80" y="85" width="310" height="48.75" as="geometry" />
        </mxCell>
        <mxCell id="7Q0SSp4v-BBXig3MVqCc-327" value="&lt;font style=&quot;font-size: 40px;&quot;&gt;Up - Conv 2x2&lt;/font&gt;" style="text;html=1;strokeColor=none;fillColor=none;align=center;verticalAlign=middle;whiteSpace=wrap;rounded=0;fontSize=16;" parent="7Q0SSp4v-BBXig3MVqCc-330" vertex="1">
          <mxGeometry x="82" y="157.5" width="308" height="48.75" as="geometry" />
        </mxCell>
        <mxCell id="7Q0SSp4v-BBXig3MVqCc-328" value="&lt;font style=&quot;font-size: 40px;&quot;&gt;Max Pool 2x2&lt;/font&gt;" style="text;html=1;strokeColor=none;fillColor=none;align=center;verticalAlign=middle;whiteSpace=wrap;rounded=0;fontSize=16;" parent="7Q0SSp4v-BBXig3MVqCc-330" vertex="1">
          <mxGeometry x="82" y="235" width="308" height="48.75" as="geometry" />
        </mxCell>
        <mxCell id="7Q0SSp4v-BBXig3MVqCc-329" value="&lt;font style=&quot;font-size: 40px;&quot;&gt;Conv 1x1&lt;/font&gt;" style="text;html=1;strokeColor=none;fillColor=none;align=center;verticalAlign=middle;whiteSpace=wrap;rounded=0;fontSize=16;" parent="7Q0SSp4v-BBXig3MVqCc-330" vertex="1">
          <mxGeometry x="82" y="315" width="308" height="48.75" as="geometry" />
        </mxCell>
        <mxCell id="QPVURhx0HzLH0I9eKyS1-7" style="edgeStyle=orthogonalEdgeStyle;rounded=0;orthogonalLoop=1;jettySize=auto;html=1;exitX=0;exitY=0.5;exitDx=0;exitDy=0;exitPerimeter=0;" edge="1" parent="7Q0SSp4v-BBXig3MVqCc-333" source="7Q0SSp4v-BBXig3MVqCc-183" target="7Q0SSp4v-BBXig3MVqCc-183">
          <mxGeometry relative="1" as="geometry" />
        </mxCell>
        <mxCell id="QPVURhx0HzLH0I9eKyS1-8" style="edgeStyle=orthogonalEdgeStyle;rounded=0;orthogonalLoop=1;jettySize=auto;html=1;" edge="1" parent="7Q0SSp4v-BBXig3MVqCc-333" source="7Q0SSp4v-BBXig3MVqCc-189" target="7Q0SSp4v-BBXig3MVqCc-189">
          <mxGeometry relative="1" as="geometry" />
        </mxCell>
      </root>
    </mxGraphModel>
  </diagram>
</mxfile>
